<?xml version="1.0" encoding="UTF-8" standalone="no"?>
<!-- Created with Inkscape (http://www.inkscape.org/) -->

<svg
   xmlns:dc="http://purl.org/dc/elements/1.1/"
   xmlns:cc="http://creativecommons.org/ns#"
   xmlns:rdf="http://www.w3.org/1999/02/22-rdf-syntax-ns#"
   xmlns:svg="http://www.w3.org/2000/svg"
   xmlns="http://www.w3.org/2000/svg"
   xmlns:sodipodi="http://sodipodi.sourceforge.net/DTD/sodipodi-0.dtd"
   xmlns:inkscape="http://www.inkscape.org/namespaces/inkscape"
   id="svg2"
   version="1.1"
   inkscape:version="0.91 r13725"
   width="2048"
   height="2048"
   viewBox="0 0 2048 2048"
   sodipodi:docname="Deep One-Tribal.svg">
  <metadata
     id="metadata8">
    <rdf:RDF>
      <cc:Work
         rdf:about="">
        <dc:format>image/svg+xml</dc:format>
        <dc:type
           rdf:resource="http://purl.org/dc/dcmitype/StillImage" />
        <dc:title></dc:title>
        <cc:license
           rdf:resource="http://artlibre.org/licence/lal" />
      </cc:Work>
      <cc:License
         rdf:about="http://artlibre.org/licence/lal">
        <cc:permits
           rdf:resource="http://creativecommons.org/ns#Reproduction" />
        <cc:permits
           rdf:resource="http://creativecommons.org/ns#Distribution" />
        <cc:permits
           rdf:resource="http://creativecommons.org/ns#DerivativeWorks" />
        <cc:requires
           rdf:resource="http://creativecommons.org/ns#ShareAlike" />
        <cc:requires
           rdf:resource="http://creativecommons.org/ns#Notice" />
        <cc:requires
           rdf:resource="http://creativecommons.org/ns#Attribution" />
      </cc:License>
    </rdf:RDF>
  </metadata>
  <defs
     id="defs6" />
  <sodipodi:namedview
     pagecolor="#ffffff"
     bordercolor="#666666"
     borderopacity="1"
     objecttolerance="10"
     gridtolerance="10"
     guidetolerance="10"
     inkscape:pageopacity="0"
     inkscape:pageshadow="2"
     inkscape:window-width="640"
     inkscape:window-height="480"
     id="namedview4"
     showgrid="false"
     inkscape:zoom="0.27783203"
     inkscape:cx="1024"
     inkscape:cy="1024"
     inkscape:current-layer="svg2" />
  <path
     fill="#f3f3f3"
     d="m 1156.5174,2038.7446 c 23.0665,-11.9604 31.2099,-19.2153 27.1115,-24.1536 -5.251,-6.3271 -22.1703,-4.0098 -55.4516,7.5947 -40.0607,13.9685 -62.2484,17.0795 -95.6194,13.4074 -65.32184,-7.1878 -113.95172,-33.688 -202.08767,-110.1249 -25.02726,-21.7051 -36.24426,-28.0349 -49.5699,-27.9728 -17.86979,0.083 -23.07269,13.5931 -15.89358,41.269 l 3.31183,12.7677 -6.3967,-4.5824 c -14.25226,-10.2098 -42.44813,-42.3186 -57.97868,-66.025 -40.19091,-61.3487 -73.05877,-157.0263 -86.72961,-252.4677 -0.82571,-5.7646 6.82383,6.9587 22.99832,38.2524 58.41585,113.0207 103.9032,166.583 141.46959,166.583 8.4963,0 11.65398,-1.4577 18.20509,-8.404 11.6163,-12.3168 14.88568,-26.8549 14.75982,-65.6329 -0.12339,-38.0263 -5.02916,-64.8116 -20.65958,-112.8008 -16.95139,-52.0448 -49.07805,-119.6185 -80.11315,-168.5061 -4.72758,-7.447 -8.14874,-13.9869 -7.6026,-14.5331 1.94059,-1.9406 28.02032,15.4534 45.41068,30.2868 85.89872,73.2688 184.13445,252.0509 189.30725,344.5258 l 1.31144,23.445 -12.5133,-25.0663 c -18.97845,-38.0173 -34.15362,-51.128 -48.38565,-41.8028 -14.69154,9.6263 -21.8732,41.3662 -18.12726,80.1155 3.9933,41.3082 22.84769,68.1025 42.59061,60.5264 8.5283,-3.2726 1.19874,-41.5107 -13.46723,-70.2584 -2.71723,-5.3263 -3.99659,-9.6841 -2.84293,-9.6841 1.15358,0 9.15556,6.3857 17.78209,14.1904 28.47368,25.7611 44.17533,52.2064 48.04565,80.9206 l 1.6502,12.2425 -7.59116,-12.87 c -11.23469,-19.0468 -22.39764,-23.8989 -22.39764,-9.7353 0,10.7922 13.09466,36.7667 22.54357,44.7174 9.44316,7.9458 15.51508,7.9207 23.53319,-0.097 5.61496,-5.615 6.18274,-7.7042 4.81182,-17.7061 -0.91616,-6.6837 -7.19383,-21.9005 -15.28918,-37.0602 -7.55415,-14.146 -13.29925,-26.1557 -12.76684,-26.6881 2.20095,-2.2009 25.07538,14.7101 39.75911,29.3939 17.091,17.091 27.2227,32.6002 30.0121,45.9416 l 1.7756,8.4922 -7.9124,-6.6578 c -8.491,-7.1452 -12.4301,-6.8133 -12.4301,1.0467 0,10.2008 7.0713,18.939 19.0736,23.5697 38.8024,14.9706 152.6139,-8.0078 136.4038,-27.5397 -4.1752,-5.0309 -8.6128,-4.6093 -25.7842,2.4495 -8.0733,3.3187 -15.0298,5.6831 -15.4589,5.254 -0.4294,-0.4294 1.4607,-3.6291 4.1998,-7.1113 7.2767,-9.2509 22.7706,-15.8432 50.6436,-21.5479 27.9773,-5.7261 48.1904,-14.5389 54.1267,-23.5988 11.1068,-16.9512 -15.149,-13.1345 -35.7967,5.2035 -6.7935,6.0336 -12.7926,10.9702 -13.3311,10.9702 -0.5389,0 -0.085,-3.1189 1.0084,-6.9309 6.0164,-20.9779 18.2393,-33.0128 51.1708,-50.3833 26.8173,-14.1454 36.1102,-23.0016 42.7457,-40.7364 9.4675,-25.3041 2.8517,-29.3548 -16.0578,-9.8318 -7.2427,7.4776 -16.5774,19.5402 -20.7438,26.8055 -8.8872,15.4979 -9.2404,14.1598 -2.8537,-10.8116 5.7539,-22.4976 15.0412,-41.4107 37.5334,-76.4344 23.9362,-37.2723 25.9283,-44.6505 12.9363,-47.9113 -12.2363,-3.0711 -23.7131,11.1047 -33.2044,41.0137 l -4.3075,13.5734 -0.2114,-12.3395 c -0.2945,-17.2062 2.7563,-26.6575 22.6866,-70.2785 11.945,-26.1436 17.5058,-41.3286 17.6232,-48.124 0.162,-9.3948 -0.2205,-9.9281 -7.1338,-9.9281 -9.6764,0 -16.8907,10.7257 -21.0586,31.3083 l -3.1555,15.5818 -3.653,-8.6377 c -5.0045,-11.8333 -2.6248,-40.1869 5.4451,-64.8763 6.053,-18.5186 7.9555,-36.4791 4.7493,-44.8345 -2.4426,-6.3652 -14.9497,-11.8139 -20.41,-8.8916 -9.2076,4.9278 -10.1453,19.7107 -2.9061,45.8174 2.6211,9.4525 4.3701,17.5819 3.8867,18.0653 -1.6766,1.6766 -13.8415,-18.736 -18.549,-31.1249 -2.6023,-6.8489 -6.5089,-25.5958 -8.681,-41.6596 -5.0019,-36.9892 -10.6988,-67.1519 -13.7656,-72.8822 -1.3096,-2.447 -3.9686,-4.4489 -5.9091,-4.4489 -11.2402,0 -13.3875,36.0949 -3.3534,56.3702 7.396,14.9445 4.8589,16.3421 -6.7196,3.7013 -9.7864,-10.6841 -21.8729,-38.5566 -33.0053,-76.1128 -4.4259,-14.9308 -9.6042,-30.1679 -11.5076,-33.8604 -6.9357,-13.4548 -22.1701,-15.1624 -27.6656,-3.1011 -7.4153,16.2751 0.5882,39.8786 25.5181,75.2539 7.4498,10.5714 13.5452,19.9535 13.5452,20.8492 0,3.3971 -23.3285,-15.2903 -35.5427,-28.4716 -22.9741,-24.7931 -34.5366,-52.5998 -40.9391,-98.4551 -3.4168,-24.4714 -7.6574,-33.977 -16.1037,-36.0969 -14.069,-3.5311 -18.5547,6.1907 -13.714,29.7226 3.4252,16.6511 16.9686,51.1407 26.5976,67.7336 6.0025,10.3436 6.0453,10.6738 0.9174,7.0821 -11.3879,-7.9764 -28.815,-31.3741 -39.4027,-52.9027 -9.5148,-19.3469 -13.7854,-35.098 -21.3461,-78.7316 -5.4336,-31.3582 -9.53,-46.5044 -21.97725,-81.261 -2.40472,-6.7146 13.29715,10.9344 27.44525,30.8486 23.6385,33.2729 37.8173,43.1941 37.8173,26.4621 0,-10.3092 -3.4972,-15.3317 -29.7128,-42.6715 -11.8024,-12.3086 -22.7785,-24.8449 -24.39133,-27.8585 -2.4952,-4.6623 -1.1641,-4.2281 8.92753,2.9121 6.5231,4.6152 35.7238,20.8521 64.8905,36.0819 56.7282,29.6214 77.4523,42.9532 92.2761,59.3614 10.9456,12.1155 10.2401,15.471 -1.3896,6.6082 -11.0634,-8.4315 -38.929,-21.405 -45.9803,-21.4073 -11.3296,0 -21.8562,10.0803 -18.8097,18.0192 1.8989,4.9486 15.658,10.4183 41.8,16.617 25.9208,6.1463 57.4967,20.5865 71.6475,32.7657 8.6715,7.4632 26.0527,33.7798 22.3105,33.7798 -0.7502,0 -8.871,-5.1594 -18.0462,-11.4653 -19.1874,-13.187 -44.0061,-25.5483 -51.3008,-25.5512 -7.695,0 -15.9734,7.0103 -15.9734,13.5323 0,8.9727 9.7444,14.8053 41.3817,24.7695 45.883,14.4507 66.6251,26.8633 79.9186,47.825 9.6707,15.249 8.8196,16.9712 -3.2718,6.6214 -5.6661,-4.85 -15.2609,-11.2187 -21.3217,-14.1527 -13.164,-6.3726 -19.2449,-4.1036 -18.4722,6.8923 0.691,9.8381 15.3625,22.3119 48.2423,41.017 22.226,12.6442 30.9344,19.4385 48.7043,37.9988 20.1373,21.0332 37.0578,47.0628 37.0578,57.0077 0,1.9525 -7.6559,-6.3561 -17.0131,-18.4634 -24.6004,-31.8307 -44.582,-47.0018 -54.0718,-41.0541 -10.1121,6.3376 -6.7337,12.6298 22.1511,41.2563 39.5961,39.242 50.1118,58.3774 52.6492,95.8056 l 1.3922,20.5348 -5.8218,-15.0842 c -13.3617,-34.62 -32.9476,-56.6049 -41.3783,-46.4465 -4.7619,5.7376 -1.2314,24.5982 7.9791,42.6267 4.6184,9.0399 13.2393,25.8251 19.1576,37.3004 9.83,19.06 10.861,22.7948 11.9222,43.1882 0.9247,17.771 0.2764,24.3372 -3.1768,32.1955 l -4.3383,9.8715 -2.2538,-9.8715 c -5.8155,-25.473 -8.1192,-31.5883 -14.4542,-38.37 -8.3434,-8.9316 -11.4934,-9.1342 -15.2094,-0.9782 -3.1696,6.9565 -2.369,11.7471 9.0519,54.1555 11.7004,43.4461 5.8308,89.9912 -12.8546,101.9352 l -5.5484,3.5468 3.6975,-10.4801 c 7.3432,-20.8129 1.8397,-47.8599 -10.3617,-50.9222 -10.9425,-2.7464 -13.3794,3.0023 -15.9841,37.7063 -3.7724,50.2636 -9.1951,71.1455 -23.6227,90.9667 -6.7436,9.2649 -26.732,25.3593 -28.8065,23.1947 -0.5182,-0.5413 3.4092,-8.1599 8.728,-16.9309 15.1822,-25.0361 18.2733,-44.5162 7.0637,-44.5162 -5.5367,0 -14.8409,13.0628 -29.509,41.4297 -19.456,37.6261 -43.4231,57.2086 -70.0829,57.262 l -12.0294,0.025 17.8483,-9.2546 z m 515.4994,-179.4044 c -15.5812,-10.5876 -26.7453,-29.9698 -53.4257,-92.753 -23.4039,-55.0728 -34.2471,-73.3193 -47.7079,-80.2801 -8.9006,-4.6027 -20.5037,-4.5463 -24.3751,0.1185 -5.4434,6.5588 1.3363,28.7017 16.138,52.7072 6.0404,9.7965 6.1677,10.4874 1.468,7.9722 -9.1684,-4.9067 -38.5396,-35.5563 -49.3934,-51.5432 -14.1081,-20.7802 -26.6902,-48.1187 -29.4662,-64.0244 l -2.262,-12.9609 10.6236,9.7924 c 14.4011,13.2745 28.1906,16.3063 28.1906,6.1981 0,-10.4108 -23.7877,-28.5492 -93.7801,-71.5087 -56.0808,-34.421 -80.9005,-52.4043 -103.7938,-75.2047 -20.6965,-20.6127 -36.8762,-48.4912 -36.8762,-63.5401 l 0,-8.5165 18.4626,18.6431 c 28.4699,28.7485 53.9583,40.91 60.4233,28.8301 12.3649,-23.1041 -27.025,-81.5083 -67.7687,-100.4818 -15.1143,-7.0384 -23.7829,-7.3212 -29.5364,-0.9635 -5.6381,6.23 -3.5401,15.4339 6.3511,27.8632 4.0507,5.0901 6.4143,9.2546 5.2525,9.2546 -1.1618,0 -8.7103,-3.9509 -16.7746,-8.7798 -29.8086,-17.8498 -59.1303,-53.3661 -72.9312,-88.339 -9.268,-23.4861 -9.3122,-30.0285 -0.1168,-17.3351 10.8481,14.9755 36.9171,37.3531 48.8023,41.8921 9.9424,3.7971 11.166,3.8003 16.8987,0.041 9.5595,-6.2636 10.2595,-14.3768 2.5924,-30.0479 -19.9842,-40.8461 -94.3711,-87.3379 -139.8869,-87.4292 -20.6818,-0.041 -24.2639,1.3497 -24.2639,9.4233 0,5.0349 7.5031,13.8532 34.0045,39.9653 28.8962,28.4716 44.6516,47.9655 41.3972,51.22 -0.4401,0.4401 -10.5151,-5.533 -22.3893,-13.273 -12.9737,-8.4568 -36.9693,-20.3624 -60.1289,-29.8334 -56.2825,-23.0167 -68.773,-32.9904 -75.946,-60.6429 -3.5714,-13.7682 -4.4828,-36.4052 -1.4629,-36.3365 1.018,0.025 4.4302,6.0027 7.5826,13.2879 7.4592,17.2379 18.5486,28.6242 27.8777,28.6242 21.3057,0 33.4127,-41.2629 19.4148,-66.1689 -5.5737,-9.9169 -15.1364,-15.7248 -19.2056,-11.6643 -0.9548,0.9529 -2.8766,5.7862 -4.2705,10.7408 l -2.5346,9.0084 -5.6643,-13.1668 c -11.4409,-26.5916 -12.2511,-51.9283 -3.9563,-123.71 1.9606,-16.96677 3.8467,-41.56807 4.1913,-54.66947 1.0046,-38.1917 6.2988,-25.8713 12.8873,29.9906 4.3533,36.91107 9.8032,56.29517 23.5906,83.90827 23.8224,47.7109 55.3743,74.8898 87.1778,75.0953 12.2343,0.082 15.1578,-0.7914 19.1262,-5.6917 6.2293,-7.6929 5.942,-11.2151 -2.3395,-28.6833 -9.6137,-20.2782 -32.1251,-48.1489 -70.4744,-87.2522 -30.2365,-30.83107 -31.7654,-32.84297 -23.6853,-31.16847 45.3457,9.39767 135.9909,105.54967 177.4535,188.23417 9.8421,19.6271 19.2906,48.9216 16.6354,51.577 -0.6985,0.6984 -4.7068,-5.5388 -8.9076,-13.8603 -13.5087,-26.7607 -33.2991,-43.9555 -46.5903,-40.4798 -20.83,5.4472 24.8542,77.1983 55.6166,87.3508 7.5591,2.4948 9.5509,2.2353 15.1959,-1.9794 14.2535,-10.6416 12.8199,-33.1309 -4.2911,-67.3177 -11.8643,-23.704 -34.9101,-57.7577 -52.1663,-77.0834 -6.969,-7.8048 -11.6889,-14.1904 -10.4887,-14.1904 5.2388,0 25.5882,15.3391 41.0074,30.9107 31.6611,31.9741 56.4351,73.8847 110.9616,187.7152 54.5602,113.9007 75.9303,153.3072 98.0171,180.7431 6.1344,7.6202 44.4363,43.8732 85.1151,80.5624 111.2772,100.3634 159.3406,150.1682 175.2878,181.6385 8.9453,17.6524 7.5187,19.121 -6.1521,6.3335 -23.2962,-21.7909 -37.95,-11.3068 -24.7747,17.7252 2.6606,5.8626 10.9653,20.0604 18.455,31.5506 7.4897,11.4903 13.6177,21.5496 13.6177,22.3541 0,0.8046 -8.2851,-6.4072 -18.4113,-16.0261 -19.6497,-18.6653 -35.3817,-28.331 -44.0925,-27.0906 -11.2762,1.6059 -7.1981,25.2062 8.3321,48.2174 8.0837,11.9779 5.4013,13.5166 -7.8572,4.5072 z m -520.5453,-34.4445 c -23.9853,-23.458 -36.9972,-32.5151 -43.2601,-30.1117 -4.6994,1.8033 -4.3803,8.0259 1.357,26.4601 2.6598,8.5461 4.4651,15.9092 4.0117,16.3626 -0.4532,0.4533 -7.1077,-4.9183 -14.7874,-11.9372 -26.2479,-23.989 -47.4231,-60.6905 -90.2896,-156.4922 -38.22544,-85.4294 -46.85764,-95.8109 -146.525,-176.2176 -99.49782,-80.2699 -145.12518,-123.703 -182.95777,-174.1595 -35.30346,-47.0833 -53.63045,-99.2964 -46.91634,-133.6631 l 1.86358,-9.5389 4.68705,13.5734 c 12.00466,34.7648 39.26026,78.6938 57.41846,92.5437 5.25736,4.01 13.17223,7.2624 19.36442,7.9573 9.51292,1.0676 11.53026,0.2435 22.00853,-8.9879 21.56069,-18.9953 24.5874,-44.4204 6.79601,-57.0889 -13.48993,-9.6057 -24.49098,-9.1055 -47.67423,2.1678 -4.77785,2.3233 0.66386,-25.0231 7.90648,-39.7357 11.67792,-23.7211 36.62752,-46.5607 57.22054,-52.3813 5.38454,-1.5219 5.0967,-0.9328 -2.26215,4.6292 -18.23923,13.7857 -23.86743,32.6879 -15.4195,51.7858 6.2344,14.0941 17.22254,21.3007 32.48903,21.3081 32.02966,0.016 45.8725,-27.736 28.88606,-57.9095 -3.03395,-5.3892 -9.23964,-12.3079 -13.7906,-15.3748 l -8.27436,-5.576 7.078,-2.7486 c 11.8329,-4.595 42.22611,-1.6016 58.2569,5.7375 12.97413,5.9398 38.89929,27.0409 38.89929,31.6613 0,1.0952 -5.05227,-0.2435 -11.22727,-2.975 -19.26547,-8.5221 -35.7608,0.2822 -32.06389,17.1143 5.11998,23.3111 47.78125,76.9738 61.19344,76.9738 8.31698,0 15.98884,-8.1293 19.30931,-20.4606 4.0003,-14.8557 -0.0164,-27.9046 -15.5855,-50.6648 -4.01197,-5.8641 -6.66685,-11.2896 -5.89967,-12.0568 2.59722,-2.5972 13.56002,6.545 21.24842,17.7196 25.17549,36.5914 31.79093,100.073 13.65379,131.0217 -6.02363,10.2786 -18.52986,20.7852 -24.76804,20.808 -1.38614,0 -3.82055,-6.8331 -5.40988,-15.196 -8.12669,-42.7627 -43.69376,-81.4515 -78.48434,-85.3729 -28.7022,-3.2351 -38.83982,28.3872 -20.60026,64.2582 19.68903,38.7216 58.38843,75.3935 66.67735,63.1839 3.68227,-5.424 0.44998,-25.3975 -6.21367,-38.3941 -6.44507,-12.5707 -26.15928,-33.0474 -41.66309,-43.2746 -10.27895,-6.7806 -9.79261,-9.3605 1.76455,-9.3605 23.87252,0 49.39912,25.0987 71.53392,70.335 12.13612,24.8023 20.19323,45.2174 47.10843,119.3633 11.73879,32.3379 22.82252,48.8895 50.05459,74.7471 29.45421,27.9677 54.08621,39.5978 65.62911,30.9872 4.5347,-3.3825 4.228,-4.0808 -7.1244,-16.2173 -15.3134,-16.3713 -9.8496,-16.463 14.4033,-0.2419 23.7046,15.8547 44.0326,38.3227 54.5955,60.3435 8.22,17.1363 13.1675,35.9332 9.3866,35.6625 -1.0794,-0.074 -6.1768,-5.6716 -11.3274,-12.4319 -12.058,-15.8264 -23.1171,-21.477 -33.5644,-17.1496 -9.495,3.9329 -11.4689,10.104 -6.3798,19.9452 2.2028,4.2597 23.7419,27.3592 47.8646,51.3321 51.6164,51.2958 63.5768,67.2349 69.0869,92.0688 l 2.3847,10.7478 -5.3988,-7.3802 c -16.4765,-22.5235 -37.7038,-39.0339 -48.5555,-37.7663 -5.8743,0.686 -6.1854,1.4858 -5.8989,15.162 0.2632,12.5528 2.3979,18.5933 16.355,46.273 8.8288,17.5095 15.9113,31.8069 15.7388,31.772 -0.1727,-0.033 -10.9318,-10.4482 -23.9095,-23.1406 z M 338.62774,1253.9539 c -14.86828,-22.6959 -25.53588,-72.9409 -28.16298,-132.6494 -2.13291,-48.4767 -0.8418,-61.417 3.47807,-34.8587 3.70614,22.7853 6.2158,26.5551 13.36866,20.0819 7.04652,-6.377 11.15452,-22.0743 18.58467,-71.015 13.78455,-90.79557 30.1292,-131.99787 82.54457,-208.08217 81.86212,-118.8279 92.84041,-137.4346 109.74685,-186.0055 15.72908,-45.1886 23.49483,-100.0263 16.11721,-113.8116 -10.52762,-19.671 -50.41146,25.0617 -69.03201,77.4246 l -4.55739,12.8158 -0.18033,-19.7927 c -0.42908,-47.0996 28.8485,-108.308 73.85655,-154.406 16.23957,-16.6328 39.32868,-34.3384 44.77935,-34.3384 1.02235,0 -0.01,4.1645 -2.29527,9.2546 -3.19027,7.1074 -4.11243,16.1256 -3.97452,38.8693 0.22088,36.4365 6.59745,60.12 27.57478,102.4177 7.74142,15.6094 14.45607,29.2137 14.92142,30.2317 0.46536,1.018 -2.07797,1.8509 -5.65185,1.8509 -23.42692,0 -54.51976,42.4599 -72.51726,99.0285 -16.45203,51.711 -14.27777,90.9995 5.03599,90.9995 9.62938,0 21.76029,-12.1346 35.34265,-35.3533 5.25864,-8.9894 10.02864,-15.877 10.59998,-15.3057 2.31682,2.3169 -10.6809,38.8174 -23.28511,65.3899 -17.93708,37.8155 -46.70578,80.4355 -72.04355,106.7304 -18.27011,18.9603 -43.47686,38.8264 -45.91191,36.1845 -0.47367,-0.5141 6.6549,-14.0464 15.84135,-30.0722 25.43606,-44.3732 30.0618,-64.8797 16.07294,-71.2535 -5.11074,-2.3286 -7.27034,-1.7855 -14.33926,3.6063 -10.52413,8.0271 -24.50758,34.4684 -31.66626,59.8778 -6.3744,22.6255 -7.8621,67.1488 -2.80076,83.8202 6.28511,20.70227 24.01757,40.54347 30.46886,34.09227 1.40612,-1.4061 2.64338,-8.5467 2.74946,-15.8681 l 0.19291,-13.31137 3.44462,8.1852 c 6.2285,14.80027 10.71019,35.81387 13.64984,64.00067 3.15425,30.2445 0.83339,64.7331 -6.97634,103.6708 -4.15551,20.7184 -8.28194,26.8057 -8.35177,12.3203 -0.0592,-12.313 -8.69272,-50.326 -16.1143,-70.952 -8.64134,-24.0159 -16.39473,-37.1025 -28.41699,-47.9639 -8.00085,-7.2283 -11.64232,-8.7977 -20.41329,-8.7977 -30.51686,0 -64.73932,47.1118 -74.37964,102.3934 -3.9109,22.4268 -4.7103,70.6445 -1.58586,95.6552 0.975,7.8047 1.45232,14.1904 1.06072,14.1904 -0.39157,0 -3.44025,-4.1646 -6.77478,-9.2546 z m 620.49873,-32.4838 c 0,-1.6911 -21.65578,-25.0538 -48.12396,-51.9173 -26.46818,-26.8635 -48.12396,-50.6501 -48.12396,-52.8593 0,-2.7795 7.41101,1.4128 24.06198,13.6118 27.917,20.4528 47.31902,38.4014 57.84961,53.5163 7.74023,11.1097 18.0608,36.9987 15.69327,39.3663 -0.74613,0.7461 -1.35694,-0.025 -1.35694,-1.7178 z M 412.11902,1209.258 c -13.66041,-9.8956 -26.98594,-26.1071 -34.69179,-42.2054 -5.03907,-10.5271 -6.78919,-18.549 -7.62068,-34.9303 -0.97444,-19.1977 -0.41773,-22.7391 5.72659,-36.4306 6.4955,-14.4739 18.918,-28.4998 30.9406,-34.9341 4.90619,-2.6256 5.3351,-2.455 3.81119,1.5162 -7.04451,18.3577 -12.26578,46.6062 -12.27931,66.4344 -0.0173,25.4099 4.44293,43.1774 17.27217,68.8033 4.67473,9.3377 8.08015,17.397 7.56757,17.9096 -0.51258,0.5125 -5.33943,-2.2609 -10.72634,-6.1631 z m 544.77335,-19.1158 c -7.06451,-8.981 -16.85786,-30.3189 -19.82757,-43.2006 -3.5114,-15.2315 -3.01502,-39.0895 0.99547,-47.8482 l 3.39007,-7.4037 0.20072,12.7803 c 0.21471,13.6888 6.31329,24.1502 10.30939,17.6844 6.94984,-11.2451 3.63208,-44.707 -5.22758,-52.7249 -4.47043,-4.0457 -5.13438,-4.0545 -11.09805,-0.1464 -8.76464,5.7428 -11.04975,13.3009 -11.11351,36.7583 l -0.0576,20.1995 -4.85262,-6.1698 c -10.55355,-13.4182 -15.58534,-31.9531 -15.74427,-57.9955 -0.12669,-20.7473 0.76751,-26.7308 5.61265,-37.5578 9.89964,-22.1215 12.43787,-21.505 11.87897,2.8852 -0.52566,22.9509 2.0189,28.1695 11.31168,23.1962 14.45726,-7.7373 15.41793,-53.51767 1.43788,-68.52347 -6.26944,-6.7295 -10.02616,-6.4868 -19.20993,1.2409 -8.91569,7.502 -13.90421,22.64167 -17.00594,51.61207 l -2.11384,19.7432 -4.46492,-9.8716 c -8.06903,-17.8398 -5.52413,-81.68847 4.22661,-106.04377 l 2.93383,-7.3279 1.69832,6.0939 c 0.93402,3.3518 1.80897,9.5674 1.94429,13.8126 0.37595,11.7876 5.68299,14.7135 13.88751,7.6562 11.17965,-9.6162 11.82262,-38.0346 1.10307,-48.7541 -17.09602,-17.096 -42.27431,10.4391 -49.82871,54.493 -1.61507,9.418 -3.70291,16.2943 -4.63972,15.2804 -3.3194,-3.5934 -7.16587,-28.2483 -7.16587,-45.9343 0,-21.121 3.28732,-41.3718 10.14166,-62.475 4.90502,-15.1018 17.38171,-35.3387 21.7874,-35.3387 1.25583,0 2.25015,8.4578 2.20959,18.7953 -0.11352,28.9188 10.33736,34.8228 20.59459,11.6345 9.97424,-22.5484 5.89012,-51.9839 -7.81624,-56.3342 -20.15917,-6.3982 -53.43956,27.7993 -58.24603,59.8514 -4.49059,29.9451 -9.97532,-2.6551 -5.94969,-35.3639 3.53863,-28.7521 8.70312,-48.3631 16.80324,-63.8061 l 6.5646,-12.5157 1.27426,15.0505 c 2.77573,32.7842 20.91681,30.6015 29.59451,-3.5606 8.04419,-31.6682 20.93828,-67.4063 29.54935,-81.9009 12.28477,-20.6782 37.04385,-47.4177 59.93482,-64.7287 32.95184,-24.9193 34.43584,-25.0851 16.36601,-1.8285 -37.01193,47.6359 -64.89307,103.6644 -70.0912,140.8518 -4.26929,30.5421 20.58275,43.7144 36.40739,19.2971 11.82549,-18.2466 29.21025,-78.4677 36.61434,-126.8323 4.3876,-28.6615 6.2443,-29.554 9.7727,-4.6974 6.0154,42.3772 -1.5871,139.8919 -13.50538,173.2298 -2.84836,7.9672 -3.51568,8.5151 -5.14021,4.2203 -2.87716,-7.6067 -11.38465,-16.0414 -16.17969,-16.0414 -14.3634,0 -34.20133,33.6972 -36.18848,61.4706 -1.14502,16.0023 -0.80454,17.5107 5.33246,23.648 5.44632,5.4463 7.90097,6.2658 14.50736,4.8433 27.43568,-5.9073 40.68694,-28.0264 49.84824,-83.2075 2.0816,-12.5376 4.5191,-26.6826 5.4168,-31.4333 l 1.6321,-8.6376 1.7653,7.4036 c 2.7805,11.6618 2.6065,48.3855 -0.3299,69.494 -3.7608,27.0394 -15.5644,72.3935 -22.85111,87.8031 -5.25621,11.1157 -6.17114,12.0263 -6.34718,6.3171 -0.46808,-15.1734 -12.99643,-28.1012 -21.9604,-22.6601 -16.55531,10.049 -20.62388,66.8351 -5.37327,74.99687 14.54026,7.7817 47.39896,-51.25337 53.20726,-95.59397 2.6065,-19.8981 6.0034,-12.8236 6.0034,12.5028 0,38.753 -8.1918,90.92417 -17.7922,113.31277 -2.7647,6.4474 -5.72282,11.7193 -6.57367,11.7152 -0.85085,0 -1.63432,-3.9853 -1.74093,-8.8474 -0.35538,-16.2172 -11.03808,-15.532 -22.63414,1.4519 -7.47024,10.9412 -7.50249,25.5005 -0.0658,30.7079 8.67687,6.0776 20.92462,4.8917 27.96775,-2.708 6.40999,-6.9165 14.30019,-29.1859 17.20589,-48.5619 3.0916,-20.61647 6.1031,-14.9997 6.1031,11.3831 0,36.5187 -10.6279,75.077 -23.66256,85.8479 -3.92568,3.2439 -4.16597,2.9368 -2.9024,-3.7105 1.89345,-9.9612 -0.0494,-13.7299 -7.09315,-13.7299 -9.27303,0 -9.68344,6.3216 -1.90472,29.3396 8.89018,26.307 9.7161,50.9722 2.15776,64.4404 l -4.84735,8.6377 -1.54853,-25.9129 c -1.87593,-31.3927 -1.34023,-28.4491 -6.03145,-33.1403 -5.1992,-5.1992 -9.923,-4.8843 -15.86503,1.0576 -3.98837,3.9884 -4.91498,8.1334 -4.82745,21.5941 0.0576,9.1621 1.5945,20.8229 3.41096,25.9129 3.91285,10.9644 3.43942,11.3709 -3.28551,2.8215 z m 453.01963,-19.6591 c -1.7202,-23.1021 -5.0823,-37.6239 -19.8783,-85.8616 -9.0258,-29.4259 -17.0745,-68.2977 -14.6275,-70.6448 2.5079,-2.4056 22.97,23.2811 31.5452,39.5997 4.7432,9.0262 10.2985,23.5153 12.3452,32.1981 4.8173,20.4363 4.8028,54.3003 -0.033,77.7127 -6.2748,30.378 -7.5398,31.3245 -9.3514,6.9959 z m -975.6876,-7.5989 c -20.98779,-22.5374 -32.458,-57.3292 -25.67561,-77.88 3.28245,-9.9459 15.04436,-22.6247 15.04436,-16.2172 0,2.1288 1.14753,15.3715 2.55006,29.428 2.87855,28.8496 7.46914,47.0556 16.21838,64.3214 3.29652,6.5053 5.21965,11.8278 4.27364,11.8278 -0.94601,0 -6.53088,-5.166 -12.41083,-11.48 z m 1056.0216,-4.0887 c -7.9771,-22.3218 -34.3107,-67.6546 -56.9437,-98.0272 -34.7812,-46.6751 -72.7157,-76.43187 -97.4367,-76.43187 -20.9224,0 -41.9871,16.61057 -49.6741,39.17067 -7.7867,22.8527 -3.6136,61.6768 9.7825,91.0107 3.2543,7.126 4.8936,12.9564 3.6429,12.9564 -3.9067,0 -22.1994,-24.9362 -30.7541,-41.9234 -15.0206,-29.8269 -30.9351,-91.48997 -30.8235,-119.42997 l 0.041,-10.1652 5.5741,9.8716 c 6.7657,11.9817 15.8647,14.2644 24.0866,6.0425 11.3425,-11.3425 1.063,-48.9764 -25.85,-94.6383 -15.4082,-26.1425 -27.8746,-40.9594 -46.6465,-55.4419 -23.3352,-18.0029 -36.2179,-18.1107 -36.2179,-0.3027 0,18.9601 15.7304,48.7532 35.5952,67.4166 l 10.0608,9.4523 -7.4037,-1.7219 c -23.3801,-5.4378 -51.0135,-30.0281 -70.3837,-62.6328 -21.3503,-35.9381 -41.1596,-92.4557 -45.7433,-130.51 l -1.6945,-14.0679 9.2031,17.2753 c 5.0616,9.5014 14.2603,24.9139 20.4413,34.25 28.0922,42.4317 44.989,47.6741 44.989,13.9584 0,-24.0212 -21.7845,-72.7846 -54.329,-121.6126 -27.6793,-41.5284 -46.7347,-62.2782 -71.116,-77.4396 -0.4492,-0.2789 6.0886,-15.0015 14.5278,-32.7161 l 15.3441,-32.2084 11.8477,-3.9353 c 14.5899,-4.8458 28.0559,-19.0175 32.0534,-33.7328 7.4722,-27.5059 -6.9594,-83.1 -30.0851,-115.8949 -6.49,-9.2036 -5.7809,-10.4468 3.0295,-5.3114 44.0634,25.684 121.8362,172.8582 141.2466,267.2893 4.4436,21.6185 7.2686,41.0246 5.7346,39.3937 -0.5907,-0.6277 -5.1657,-11.1363 -10.1674,-23.3524 -10.4553,-25.536 -24.7676,-52.7396 -38.952,-74.0369 -24.3671,-36.5861 -43.4987,-46.9033 -57.069,-30.776 -13.713,16.297 -11.1165,43.3086 7.8966,82.1488 20.6998,42.286 48.7481,81.7074 127.3689,179.0156 90.758,112.3302 114.3619,144.4474 138.9345,189.0441 13.8967,25.2211 22.6824,33.7615 29.1821,28.3673 6.1129,-5.0734 3.5612,-25.9341 -5.3787,-43.9709 -5.9409,-11.9863 -6.4807,-14.3123 -2.8738,-12.3819 2.4426,1.3073 8.91,8.0305 14.3719,14.9403 38.4422,48.633 73.0148,149.37217 70.9575,206.75897 l -0.7206,20.1042 -5.6478,-15.804 z m -579.21906,-26.603 c -14.70331,-21.519 -39.44453,-46.7899 -51.33206,-52.4308 -11.52268,-5.4679 -24.59924,-5.2921 -29.7504,0.3998 -2.24644,2.4822 -4.08436,5.7719 -4.08436,7.3104 0,1.5385 6.19779,9.7431 13.77283,18.2327 7.57504,8.4895 14.91966,17.5784 16.32142,20.1975 2.98131,5.5707 2.69766,5.5139 -23.92451,-4.7916 -12.41146,-4.8045 -21.98871,-6.7302 -34.01665,-6.8397 -19.09814,-0.1736 -21.28881,-3.9169 -7.41891,-12.6766 4.32713,-2.7328 8.49713,-6.4942 9.26662,-8.3585 0.76998,-1.8642 -2.97036,-12.9698 -8.31113,-24.6789 -11.32526,-24.8299 -15.01476,-37.2922 -15.03385,-50.7806 -0.0164,-13.0369 3.39682,-8.5329 7.28219,9.6037 2.13892,9.9846 5.35262,16.8745 10.07222,21.5941 6.66842,6.6684 17.89685,9.2969 20.65448,4.835 0.7124,-1.1528 -2.67767,-10.3149 -7.53375,-20.3601 -11.40143,-23.5846 -18.1494,-43.04837 -18.1494,-52.34937 0,-6.8622 0.73955,-6.2512 10.17662,8.4069 6.22082,9.6627 26.45074,31.63547 52.04331,56.52727 24.16004,23.4985 46.39224,47.5257 52.56716,56.8113 10.73247,16.1393 21.80953,40.5514 20.36565,44.883 -0.42448,1.2728 -6.25965,-5.7182 -12.96748,-15.5355 z m 447.17746,-38.365 c -0.8289,-10.7485 -4.8926,-35.5144 -9.0306,-55.0354 -4.138,-19.5209 -7.5235,-36.9481 -7.5235,-38.7269 0,-4.71367 7.2498,-1.51097 16.7259,7.3889 9.8885,9.2871 15.3567,26.3058 15.3567,47.7949 0,17.5294 -5.9631,47.1008 -10.844,53.7757 -2.7226,3.7234 -3.3933,1.5476 -4.6845,-15.1972 z M 861.54992,1043.981 c -41.55278,-36.3139 -82.30876,-87.13517 -102.25775,-127.51177 -6.70626,-13.5734 -12.93399,-27.4553 -13.83946,-30.8487 l -1.64625,-6.1697 6.75956,6.1697 c 10.65777,9.7278 43.98555,50.1045 70.27843,85.1424 30.12601,40.14587 66.2597,92.54597 63.81731,92.54597 -0.54787,0 -10.94792,-8.6975 -23.11184,-19.3279 z m -29.79268,-85.80897 c -28.04986,-18.7636 -61.12747,-63 -120.29371,-160.875 -16.67466,-27.5838 -26.80471,-46.548 -24.08797,-45.094 7.42129,3.9717 40.00878,40.1112 55.14693,61.1577 7.59553,10.56 20.70532,30.3056 29.13285,43.8791 35.00759,56.3832 48.58201,77.3113 59.62732,91.9291 6.41019,8.4833 11.29909,15.4243 10.86425,15.4243 -0.43517,0 -5.11019,-2.8896 -10.38967,-6.4212 z m -25.15008,-76.6013 c -39.38844,-39.1338 -77.05938,-95.1356 -129.0985,-191.918 -16.12424,-29.988 -29.32137,-55.3565 -29.32693,-56.3745 -0.0568,-10.4511 36.54866,27.0527 57.20881,58.6125 8.88566,13.5734 34.1634,56.3297 56.17267,95.014 22.00935,38.6842 46.58935,80.2386 54.62226,92.343 8.03284,12.1045 14.11513,22.4981 13.51617,23.0971 -0.59887,0.5989 -10.99159,-8.7493 -23.09448,-20.7741 z m 15.77701,-34.7416 c -11.37182,-36.6557 -36.11198,-78.7442 -63.49147,-108.0128 -12.62534,-13.4965 -14.18176,-16.0769 -9.69776,-16.0769 7.23135,0 18.95607,-6.3107 20.8385,-11.2161 4.80812,-12.5299 -0.5997,-28.3322 -13.37509,-39.0817 -14.53467,-12.2302 -23.2442,-5.9092 -26.47196,19.2122 l -1.80815,14.0722 -16.31501,-21.7251 c -77.24742,-102.8624 -115.35642,-200.5652 -105.91215,-271.5345 2.4944,-18.7444 12.25216,-50.8736 16.84519,-55.466 0.95169,-0.9516 1.93929,7.3763 2.19467,18.5064 1.0548,45.972 23.84232,99.4478 61.08509,143.3492 13.22224,15.5863 13.561,16.3233 7.50257,16.3233 -3.53346,0 -9.17251,2.8275 -12.72604,6.381 -5.71499,5.7151 -6.24015,7.7459 -5.03146,19.4566 1.62519,15.7465 10.85668,36.1125 22.57417,49.8018 14.62968,17.0915 30.90702,20.0392 39.36622,7.1288 5.19328,-7.9259 11.39387,-31.8044 11.39387,-43.8777 0,-17.5902 -11.91459,-14.1274 -22.08479,6.4186 -4.38068,8.8499 -5.05845,9.379 -5.06009,3.9504 -0.005,-15.5619 14.76328,-56.9437 23.94081,-67.0847 8.08087,-8.9293 10.60775,-5.534 10.60775,14.2532 0,46.0086 21.51298,87.7985 41.87139,81.337 14.88527,-4.7244 22.08923,-39.9338 17.51539,-85.6064 -1.63342,-16.3103 -2.43573,-30.1891 -1.78305,-30.8418 2.45185,-2.4518 21.67363,17.5621 29.94643,31.1805 8.0919,13.3207 20.723,40.969 24.73654,54.1459 l 1.80403,5.9229 -7.36511,-5.2445 c -12.4479,-8.8636 -19.61072,-10.6891 -24.14613,-6.1537 -6.54412,6.5441 1.32888,28.277 14.15256,39.0675 12.86736,10.8271 41.86241,6.2378 55.91971,-8.8509 6.30375,-6.7662 6.93133,-19.1046 1.50542,-29.5971 -3.49997,-6.7683 -3.45308,-7.4413 0.61697,-8.8478 22.48747,-7.771 41.51025,-18.9485 71.21697,-41.8463 48.24404,-37.1863 90.17894,-95.6055 96.35574,-134.2324 2.2268,-13.9257 5.8145,-7.8031 5.7851,9.8728 -0.033,18.3592 -3.4262,31.8191 -13.5618,53.7563 -17.5795,38.0486 -48.0195,78.4173 -119.50366,158.4827 -39.85199,44.636 -61.19748,70.3734 -70.90964,85.4997 -2.51865,3.9228 -2.96048,2.9523 -3.08487,-6.7757 -0.27887,-21.8316 -7.70073,-31.834 -23.62039,-31.834 -8.30948,0 -22.10124,12.864 -27.04887,25.2293 -5.47141,13.6746 -5.62746,39.4348 -0.28792,47.5837 5.33114,8.1364 17.08713,8.1742 28.97926,0.093 l 8.92753,-6.0664 -7.07077,16.8288 c -7.11354,16.9307 -22.54612,75.587 -25.78622,98.0086 -2.72768,18.876 -4.69541,19.7237 -9.53932,4.1098 z m -30.56834,-304.9404 c -8.01161,-47.7501 -11.29309,-55.7489 -17.38534,-42.3778 -4.15659,9.1227 -3.71649,12.1088 5.7984,39.345 13.20357,37.7945 10.17653,38.409 -5.75085,1.1677 -16.80629,-39.2965 -42.39565,-88.9468 -74.99704,-145.5143 -24.35731,-42.263 -36.50199,-65.0409 -36.50199,-68.4611 0,-1.0957 12.44971,10.0946 27.66602,24.8673 42.59275,41.3508 54.31846,48.5142 43.44647,26.542 -8.95286,-18.0936 -31.81734,-39.8536 -71.58937,-68.1312 -20.77651,-14.7719 -44.03198,-33.0816 -51.67878,-40.688 -12.57778,-12.5114 -26.81699,-34.8989 -26.81699,-42.1628 0,-1.5668 7.77167,4.4826 17.27038,13.4432 27.04791,25.5156 38.2677,25.4175 38.24295,-0.3344 -0.0123,-12.5506 -1.60556,-17.9965 -10.1722,-34.7638 l -10.1579,-19.8819 7.4753,3.8657 c 12.01347,6.2124 30.58926,24.9948 40.83843,41.2926 5.22437,8.3076 19.65482,35.0947 32.06767,59.5269 12.41286,24.4321 28.41469,52.1222 35.55966,61.5335 12.05633,15.8805 33.04948,33.4805 39.93541,33.4805 8.13657,0 11.73624,-6.8354 14.99715,-28.4785 3.55624,-23.6024 5.56157,-30.751 8.62628,-30.751 2.92553,0 4.64639,8.5734 7.72254,38.4742 2.40241,23.3516 2.03717,37.6595 -2.48846,97.4818 -2.91722,38.5623 -5.56066,80.0506 -5.87417,92.1962 l -0.57008,22.083 -5.66349,-33.7547 z m 104.8543,10.6351 c -28.36509,-11.083 -45.80052,-31.8655 -49.8315,-59.3976 -2.50401,-17.1029 2.44297,-38.0019 18.48774,-78.1034 20.78914,-51.9595 27.62653,-80.4888 29.41469,-122.7333 l 1.45408,-34.3528 12.70802,13.9197 c 21.38176,23.4204 51.05919,87.932 56.42423,122.6529 l 1.71601,11.1055 -8.90087,-10.2716 c -9.62842,-11.1112 -26.41027,-20.5771 -36.48085,-20.5771 -7.82866,0 -18.06294,7.8468 -23.62064,18.1102 -3.24956,6.0009 -4.23548,14.0714 -4.26954,34.9496 -0.0411,23.4004 0.71405,28.5656 5.45265,37.4276 6.25036,11.69 16.49525,19.9072 27.58457,22.125 9.76752,1.9535 33.77192,-9.2826 36.20444,-16.9468 2.1488,-6.7702 -6.49805,-14.225 -16.49952,-14.225 -3.92174,0 -7.13033,-0.984 -7.13033,-2.1866 0,-1.2027 4.55434,-9.007 10.12076,-17.3428 19.32066,-28.9329 58.34573,-53.6048 89.10793,-56.3346 l 15.5284,-1.3781 -13.0929,11.8256 c -24.2383,21.8922 -32.4966,51.6293 -20.8662,75.1365 l 4.7868,9.6749 -22.9363,22.841 -22.93627,22.8408 -14.30334,-7.1897 c -12.03313,-6.0486 -17.30744,-7.1981 -33.23071,-7.2425 -16.67491,-0.049 -19.68525,0.6597 -25.29593,5.9303 -9.00181,8.4568 -8.61773,21.0203 1.05058,34.3671 8.26606,11.4109 6.75463,12.174 -10.646,5.3752 z M 702.0588,514.13493 c -25.42114,-13.8064 -71.69601,-129.3282 -70.96759,-177.1655 0.10711,-7.0373 0.55692,-11.6846 0.99942,-10.3272 0.44258,1.3573 3.82186,11.9076 7.50961,23.445 12.66295,39.6169 30.62937,69.1011 42.10738,69.1011 7.5043,0 7.71859,-5.2029 0.92407,-22.4406 -2.76438,-7.0134 -4.39319,-13.3847 -3.61958,-14.1584 2.80961,-2.8095 18.61163,16.0813 29.5542,35.3311 13.01716,22.8993 34.48876,72.5561 32.3138,74.731 -0.8177,0.8177 -5.67797,-2.6054 -10.80033,-7.6073 -5.12229,-5.0018 -10.56951,-9.0942 -12.10479,-9.0942 -5.03187,0 -17.97754,12.6687 -17.97754,17.5929 0,2.6481 2.24364,9.2127 4.98597,14.588 2.74224,5.3753 4.68571,9.7288 4.31881,9.6745 -0.36689,-0.058 -3.62649,-1.7061 -7.24343,-3.6704 z m 137.12367,-124.5614 c 0.66469,-21.6515 2.45482,-31.5197 10.88482,-60.0074 5.54907,-18.752 10.86442,-39.264 11.81184,-45.5821 1.58012,-10.5369 1.91632,-10.9831 4.06298,-5.3918 4.7971,12.4951 0.36525,44.077 -11.52614,82.1361 -6.28162,20.1047 -12.45794,40.6499 -13.72512,45.656 -1.74834,6.9069 -2.1121,2.8525 -1.50838,-16.8108 z m 135.97735,-6.1697 c -1.06383,-2.7147 -5.09308,-13.265 -8.95402,-23.445 -8.66536,-22.8479 -23.75481,-48.3479 -55.74845,-94.2107 -13.56445,-19.4446 -27.52114,-40.3513 -31.01478,-46.4594 -7.85835,-13.7388 -17.18782,-37.2172 -15.47099,-38.9341 0.70088,-0.7006 6.34578,3.4012 12.54464,9.1151 13.75893,12.6826 21.74068,13.032 22.9066,1.0029 1.5384,-15.872 -14.96919,-38.8778 -62.10887,-86.55799 -16.4389,-16.627436 -28.40367,-30.231706 -26.5882,-30.231706 7.02577,0 47.95886,15.1251 67.46091,24.92735 82.02898,41.229846 159.04004,107.079946 184.71774,157.947246 4.0026,7.9289 7.2774,14.8951 7.2774,15.4802 0,0.5853 -6.941,-5.5965 -15.4244,-13.7371 -37.1169,-35.6173 -82.03792,-63.6908 -101.91287,-63.6908 -8.75609,0 -11.64329,1.2938 -16.94367,7.593 -7.26532,8.6343 -8.40162,20.843 -2.9256,31.4325 4.21278,8.1466 21.53477,24.4071 55.83358,52.4123 24.96856,20.3869 41.60876,40.0938 45.73576,54.1643 1.6892,5.7592 1.1538,5.5745 -8.1165,-2.8006 -19.3182,-17.4528 -41.71868,-27.8457 -51.90006,-24.0794 -9.78291,3.619 -6.69244,11.7378 11.68129,30.6866 17.06957,17.604 22.27507,26.1143 22.27507,36.417 0,4.5192 -0.9372,3.9688 -6.0474,-3.5515 -10.51425,-15.4731 -19.55868,-14.255 -23.47712,3.1619 -1.61762,7.1902 -2.12321,7.637 -3.80006,3.3579 z m -152.92718,-11.9736 c -3.46855,-21.3633 0.15054,-57.3374 9.35892,-93.0381 4.74444,-18.3935 9.42135,-38.7446 10.39313,-45.2247 1.30897,-8.729 2.48632,-11.0622 4.54364,-9.0044 5.51213,5.5134 2.48896,41.619 -6.9876,83.4517 -5.00884,22.1111 -10.51488,48.2091 -12.23558,57.9955 l -3.12855,17.7936 -1.94396,-11.9736 z m -17.02404,-36.3732 c -3.01782,-15.0892 -1.50385,-47.3979 3.78575,-80.7904 2.94001,-18.5592 5.37089,-44.5718 5.40206,-57.8059 0.0329,-13.2341 0.45903,-24.062 0.95031,-24.062 0.49193,0 2.36868,3.6093 4.17156,8.0207 8.24944,20.1854 6.96128,51.352 -5.07457,122.7778 -3.54529,21.0388 -6.72254,38.5685 -7.06073,38.955 -0.3381,0.3865 -1.31662,-2.8064 -2.17438,-7.0952 z m -43.34603,-15.3888 C 684.49709,179.88183 600.02862,79.460274 533.09912,47.699474 c -18.47597,-8.7676 -18.47957,-8.77124 -17.71981,-17.92284 1.11163,-13.38987 13.26275,-18.8691 41.48019,-18.7044 22.18678,0.12948 55.57901,6.33752 62.9057,11.69492 3.65406,2.67191 1.78964,2.87069 -11.37542,1.21281 -26.15816,-3.29409 -36.34694,2.02101 -29.25969,15.26367 7.42696,13.87741 48.42295,22.74006 57.71154,12.47629 5.01925,-5.54621 5.81589,-16.78501 1.73081,-24.41805 -3.98666,-7.44917 -23.22556,-16.75967 -42.3828,-20.5108101 -27.09483,-5.30537 -23.18988,-7.80221 10.02778,-6.41178004 43.58086,1.82420004 87.21427,14.09816014 141.15391,39.70621014 21.87099,10.3833 56.27773,32.72663 56.27773,36.54605 0,1.777 -1.00583,1.75675 -3.20029,-0.0642 -6.81312,-5.65441 -39.4085,-20.39267 -52.83534,-23.8899 -18.08432,-4.71038 -38.4874,-4.69197 -47.64379,0.0428 -11.28544,5.83591 -14.41235,19.79383 -9.03093,40.3117 5.82637,22.214216 14.71186,36.411186 28.10472,44.904686 20.55535,13.0358 43.61035,11.9851 55.8363,-2.5446 8.03497,-9.549 9.72927,-20.9043 5.53302,-37.081466 -1.92825,-7.43348 -2.98245,-14.03886 -2.34269,-14.67863 0.64001,-0.63976 6.28441,1.55356 12.54366,4.87407 29.65365,15.731216 75.6827,93.250326 89.43571,150.621826 5.26155,21.9489 6.489,34.6136 2.96855,30.6294 -1.13935,-1.2894 -6.27932,-12.3394 -11.422,-24.5555 -23.4237,-55.6407 -42.38018,-85.5813 -59.25458,-93.5887 -22.95472,-10.8927 -39.75286,9.4627 -25.35064,30.7191 7.60466,11.2237 11.16855,11.6922 15.24715,2.0044 l 3.46732,-8.2359 1.72135,6.8425 c 3.20284,12.7315 -6.85737,78.3754 -14.78212,96.4556 -3.24084,7.3938 -3.40956,6.7698 -3.60148,-13.3184 -0.35208,-36.8265 -12.03971,-66.5347 -26.17639,-66.5347 -20.64724,0 -18.76991,62.22 3.65841,121.2463 2.70835,7.1279 4.66473,13.2194 4.34744,13.5367 -0.31753,0.3173 -4.37171,-6.2799 -9.00987,-14.6603 z M 564.84739,293.97903 C 535.63713,231.02943 501.02765,97.880434 506.30273,68.747144 c 5.26749,-29.09131 25.84295,-26.03813 65.67123,9.74492 36.28238,32.597306 123.17818,139.856266 151.05463,186.452766 l 4.42929,7.4037 -5.70956,-6.3924 c -3.14023,-3.5159 -13.93546,-16.0583 -23.98942,-27.8721 -40.28626,-47.3383 -97.98837,-94.1005 -110.28996,-89.38 -7.9622,3.0554 -0.21274,27.6955 17.56966,55.8647 6.74412,10.6833 6.76211,10.8103 0.94229,6.6423 -12.49352,-8.9475 -24.57199,-14.1333 -32.91837,-14.1333 -7.10769,0 -9.35196,1.3138 -12.4378,7.2811 -6.9584,13.4561 -3.19985,48.407 9.68948,90.1029 3.3401,10.8049 5.73482,19.9834 5.3216,20.3966 -0.41321,0.4132 -5.268,-8.9825 -10.78841,-20.8793 z m 158.59506,-167.0183 c -14.55959,-6.471 -26.0599,-26.22976 -25.80382,-44.333476 l 0.10941,-7.71038 4.69534,8.88361 c 9.00156,17.031006 28.50592,29.905386 38.88613,25.667856 3.39912,-1.38764 2.21231,-2.50495 -5.54725,-5.22223 -21.95391,-7.687976 -25.35022,-29.275216 -5.69911,-36.224166 3.27284,-1.15733 4.337,0.22063 4.93579,6.39138 0.83448,8.59994 7.02996,11.71329 13.16951,6.61794 2.60478,-2.16179 2.87469,-4.15795 1.02854,-7.60747 -3.07335,-5.74266 -0.35949,-5.98482 7.26038,-0.64782 7.03696,4.92893 14.96178,21.70248 15.03516,31.823486 0.14314,19.74487 -26.29016,32.04127 -48.06975,22.36127 z"
     id="path4138"
     inkscape:connector-curvature="0" />
</svg>
